<svg width="1440" height="1024" viewBox="0 0 1440 1024" fill="none" xmlns="http://www.w3.org/2000/svg">
<rect width="1440" height="1024" fill="#DFDEC8"/>
<path d="M494.546 1.39798C492.412 2.59798 490.812 4.33131 490.812 5.39798C490.812 8.33131 493.079 7.79798 493.879 4.73131C495.079 0.197975 501.079 1.53131 504.012 6.99798C506.279 11.398 505.879 12.0646 500.146 15.9313C496.679 18.198 493.479 21.9313 490.946 27.1313C487.346 34.198 484.812 37.2646 478.146 42.0646C475.612 44.0646 475.612 43.9313 477.879 40.7313C480.279 37.2646 480.946 28.7313 478.812 28.7313C478.146 28.7313 477.479 29.9313 477.479 31.2646C477.479 34.3313 474.946 35.398 468.012 35.398C464.812 35.398 459.612 36.998 454.946 39.398C450.679 41.5313 446.812 42.998 446.412 42.598C445.746 41.9313 440.812 43.1313 421.212 48.8646C416.146 50.3313 409.612 53.5313 406.546 55.798C399.479 61.1313 392.546 72.4646 391.346 80.4646C389.212 94.3313 397.212 109.665 408.279 112.865C417.612 115.798 429.479 108.731 429.479 100.198C429.479 99.1313 427.879 96.4646 426.012 94.198C422.546 90.0646 417.479 88.8646 413.746 91.2646C411.079 92.8646 412.412 97.398 415.479 97.5313C416.946 97.6646 418.946 97.798 419.879 97.9313C422.412 98.198 421.746 103.131 418.946 104.731C413.212 107.665 405.879 105.398 402.412 99.398C398.946 93.6646 399.612 88.3313 404.012 83.5313C407.079 80.198 408.946 79.398 413.479 79.398C421.479 79.398 424.812 81.6646 439.346 97.2646C460.946 120.598 476.412 129.131 497.479 129.265C506.946 129.265 510.012 128.731 516.146 125.931C531.746 118.598 540.146 106.865 540.146 92.198C540.146 86.998 539.079 81.9313 537.479 78.198C536.012 74.998 534.812 72.198 534.812 71.9313C534.812 71.6646 573.612 71.398 621.212 71.398H707.479V64.598V57.9313L594.812 58.4646C500.146 58.8646 477.746 59.2646 454.146 61.2646C438.812 62.598 425.746 64.198 425.079 64.598C424.146 65.5313 448.146 67.798 477.879 69.6646L492.279 70.4646L488.279 73.1313C486.012 74.4646 484.146 76.198 484.146 76.998C484.146 77.798 482.679 79.5313 480.812 80.998C478.946 82.4646 477.612 84.3313 477.879 85.1313C478.146 85.9313 476.412 88.198 474.279 90.3313C471.079 93.2646 470.546 94.3313 472.012 95.2646C473.346 96.198 472.546 97.2646 468.679 99.9313C465.879 101.798 462.279 103.398 460.812 103.398C458.546 103.531 458.679 103.798 461.879 105.531C466.146 107.798 471.346 108.331 476.546 106.998C479.346 106.198 480.146 106.465 480.146 108.065C480.146 111.131 482.279 110.465 487.479 105.931C490.146 103.531 492.679 102.065 493.079 102.598C494.412 103.931 498.812 99.1313 500.946 94.0646C502.279 90.998 503.212 89.9313 504.012 91.1313C505.212 93.1313 507.346 90.998 511.879 83.2646C514.946 78.198 519.612 75.398 524.946 75.398C527.612 75.398 528.812 76.598 530.812 80.998C535.746 91.9313 533.612 102.065 524.146 111.531C511.879 123.798 493.479 125.398 473.879 116.198C464.679 111.798 461.346 109.131 445.746 93.2646C424.146 71.1313 418.279 68.198 405.879 73.398C403.212 74.4646 400.812 75.2646 400.546 74.8646C400.279 74.598 402.012 71.798 404.412 68.598C407.479 64.4646 411.612 61.2646 418.146 58.0646L427.346 53.398L463.479 52.598C501.879 51.798 504.412 51.398 516.946 44.0646C523.612 40.0646 531.746 31.2646 534.412 24.998C536.146 20.8646 536.146 20.0646 534.412 18.3313C531.746 15.798 530.412 16.7313 525.746 25.1313C523.479 29.1313 520.146 33.2646 518.279 34.4646C516.412 35.6646 513.212 37.798 511.212 38.998L507.479 41.398L511.746 36.0646C518.946 26.998 519.879 16.598 514.279 8.06464C509.612 0.997975 500.679 -1.93536 494.546 1.39798Z" fill="black" fill-opacity="0.1"/>
<path d="M933.478 1.66457C924.945 6.06457 920.545 18.5979 924.278 28.3312C924.945 30.3312 927.478 34.0646 929.878 36.3312C934.812 41.5312 933.878 41.9312 926.945 37.5312C920.945 33.6646 915.078 26.9979 912.545 20.9979C910.412 15.6646 906.412 15.6646 905.745 20.8646C905.212 25.5312 912.678 36.1979 920.412 41.7979C933.212 50.8646 938.145 51.7979 977.478 52.7312C1016.95 53.6646 1020.81 54.4646 1030.68 62.9979C1035.35 66.8646 1041.48 75.3979 1039.61 75.3979C1039.35 75.3979 1037.35 74.4646 1035.35 73.3979C1025.61 68.3312 1015.08 72.3312 1002.15 86.1979C980.678 108.865 973.345 114.598 959.745 119.398C951.612 122.331 939.745 122.865 932.145 120.731C918.012 116.865 907.745 104.865 907.745 92.1979C907.745 82.9979 911.345 75.3979 915.745 75.3979C921.212 75.3979 926.412 78.9979 930.678 86.1979C934.012 91.5312 935.345 92.5979 936.812 91.3979C938.145 90.1979 938.812 90.8646 940.012 94.4646C941.878 99.9312 946.812 104.998 947.878 102.331C948.278 100.998 948.945 101.398 950.412 103.265C951.478 104.865 954.145 106.998 956.278 108.065C959.612 109.931 960.278 109.931 960.945 108.198C961.478 106.731 962.678 106.598 966.278 107.531C969.878 108.598 972.012 108.331 976.412 106.198C980.678 104.331 981.345 103.531 979.212 103.531C975.478 103.398 967.345 96.7312 969.478 95.3979C970.412 94.8646 969.212 92.9979 966.145 90.3312C963.478 87.9312 962.145 86.0646 963.078 86.0646C964.012 86.0646 962.812 84.1979 960.545 82.0646C958.145 79.9312 956.145 77.5312 956.145 76.7312C956.145 75.9312 954.278 74.1979 952.145 72.8646L948.145 70.4646L961.078 69.6646C992.278 67.7979 1016.15 65.5312 1015.21 64.7312C1014.68 64.1979 1001.21 62.5979 985.478 61.2646C961.345 59.2646 939.212 58.7312 845.345 58.3312L734.012 57.9312V64.5979V71.3979H820.278H906.412L903.878 76.7312C893.212 98.1979 906.012 121.398 932.412 128.331C940.145 130.331 942.545 130.465 951.078 128.998C956.678 128.065 965.078 125.265 970.812 122.598C979.345 118.465 983.345 115.265 997.345 100.865C1017.21 80.8646 1019.08 79.3979 1026.55 79.3979C1039.08 79.3979 1044.81 93.1312 1036.01 101.931C1033.08 104.865 1030.68 106.065 1027.48 106.065C1023.21 106.065 1018.81 103.265 1018.81 100.731C1018.81 98.8646 1021.88 97.3979 1024.68 97.9312C1027.88 98.4646 1029.61 95.5312 1028.01 92.4646C1026.15 89.1312 1019.75 89.3979 1015.48 92.9979C1008.28 99.2646 1012.15 109.665 1022.95 112.865C1035.88 116.865 1049.48 102.731 1049.48 85.5312C1049.48 72.4646 1041.08 59.2646 1028.55 52.3312C1022.55 49.1312 1002.81 43.5312 994.812 42.7312C992.945 42.5979 988.812 41.1312 985.478 39.3979C982.145 37.5312 976.145 35.7979 972.145 35.3979C966.412 34.8646 964.545 34.0646 963.345 31.7979C962.545 30.0646 961.478 29.1312 961.078 29.6646C959.212 31.3979 960.278 36.4646 963.078 40.0646L965.878 43.6646L962.012 41.6646C957.078 39.1312 954.812 36.4646 950.012 27.5312C947.745 23.3979 944.012 18.7312 941.212 16.8646C937.745 14.3312 936.278 12.3312 936.145 9.93124C936.145 3.53124 944.945 -1.0021 946.412 4.73124C947.212 7.7979 949.478 8.33124 949.478 5.53124C949.478 0.464568 940.145 -1.8021 933.478 1.66457Z" fill="black" fill-opacity="0.1"/>
<path d="M715.613 55.5314C712.946 59.5314 710.812 63.5314 710.812 64.4648C710.812 66.7314 719.079 80.5981 720.413 80.7314C721.613 80.7314 729.479 66.8648 729.479 64.4648C729.479 63.3981 727.479 59.3981 724.946 55.5314L720.546 48.3314L715.613 55.5314Z" fill="black" fill-opacity="0.1"/>
<path d="M945.933 1022.58C948.066 1021.38 949.666 1019.65 949.666 1018.58C949.666 1015.65 947.4 1016.18 946.6 1019.25C945.4 1023.78 939.4 1022.45 936.466 1016.98C934.2 1012.58 934.6 1011.92 940.333 1008.05C943.8 1005.78 947 1002.05 949.533 996.851C953.133 989.784 955.666 986.717 962.333 981.917C964.866 979.917 964.866 980.051 962.6 983.251C960.2 986.717 959.533 995.251 961.666 995.251C962.333 995.251 963 994.051 963 992.717C963 989.651 965.533 988.584 972.466 988.584C975.666 988.584 980.866 986.984 985.533 984.584C989.8 982.451 993.666 980.984 994.066 981.384C994.733 982.051 999.666 980.851 1019.27 975.117C1024.33 973.651 1030.87 970.451 1033.93 968.184C1041 962.851 1047.93 951.517 1049.13 943.517C1051.27 929.651 1043.27 914.317 1032.2 911.117C1022.87 908.184 1011 915.251 1011 923.784C1011 924.851 1012.6 927.517 1014.47 929.784C1017.93 933.917 1023 935.117 1026.73 932.717C1029.4 931.117 1028.07 926.584 1025 926.451C1023.53 926.317 1021.53 926.184 1020.6 926.051C1018.07 925.784 1018.73 920.851 1021.53 919.251C1027.27 916.317 1034.6 918.584 1038.07 924.584C1041.53 930.317 1040.87 935.651 1036.47 940.451C1033.4 943.784 1031.53 944.584 1027 944.584C1019 944.584 1015.67 942.317 1001.13 926.717C979.533 903.384 964.066 894.851 943 894.717C933.533 894.717 930.466 895.251 924.333 898.051C908.733 905.384 900.333 917.117 900.333 931.784C900.333 936.984 901.4 942.051 903 945.784C904.466 948.984 905.666 951.784 905.666 952.051C905.666 952.317 866.866 952.584 819.266 952.584H733V959.384V966.051L845.666 965.517C940.333 965.117 962.733 964.717 986.333 962.717C1001.67 961.384 1014.73 959.784 1015.4 959.384C1016.33 958.451 992.333 956.184 962.6 954.317L948.2 953.517L952.2 950.851C954.466 949.517 956.333 947.784 956.333 946.984C956.333 946.184 957.8 944.451 959.666 942.984C961.533 941.517 962.866 939.651 962.6 938.851C962.333 938.051 964.066 935.784 966.2 933.651C969.4 930.717 969.933 929.651 968.466 928.717C967.133 927.784 967.933 926.717 971.8 924.051C974.6 922.184 978.2 920.584 979.666 920.584C981.933 920.451 981.8 920.184 978.6 918.451C974.333 916.184 969.133 915.651 963.933 916.984C961.133 917.784 960.333 917.517 960.333 915.917C960.333 912.851 958.2 913.517 953 918.051C950.333 920.451 947.8 921.917 947.4 921.384C946.066 920.051 941.666 924.851 939.533 929.917C938.2 932.984 937.266 934.051 936.466 932.851C935.266 930.851 933.133 932.984 928.6 940.717C925.533 945.784 920.866 948.584 915.533 948.584C912.866 948.584 911.666 947.384 909.666 942.984C904.733 932.051 906.866 921.917 916.333 912.451C928.6 900.184 947 898.584 966.6 907.784C975.8 912.184 979.133 914.851 994.733 930.717C1016.33 952.851 1022.2 955.784 1034.6 950.584C1037.27 949.517 1039.67 948.717 1039.93 949.117C1040.2 949.384 1038.47 952.184 1036.07 955.384C1033 959.517 1028.87 962.717 1022.33 965.917L1013.13 970.584L977 971.384C938.6 972.184 936.066 972.584 923.533 979.917C916.866 983.917 908.733 992.717 906.066 998.984C904.333 1003.12 904.333 1003.92 906.066 1005.65C908.733 1008.18 910.066 1007.25 914.733 998.851C917 994.851 920.333 990.717 922.2 989.517C924.066 988.317 927.266 986.184 929.266 984.984L933 982.584L928.733 987.917C921.533 996.984 920.6 1007.38 926.2 1015.92C930.866 1022.98 939.8 1025.92 945.933 1022.58Z" fill="black" fill-opacity="0.1"/>
<path d="M507 1022.32C515.533 1017.92 519.933 1005.38 516.2 995.651C515.533 993.651 513 989.917 510.6 987.651C505.667 982.451 506.6 982.051 513.533 986.451C519.533 990.317 525.4 996.984 527.933 1002.98C530.067 1008.32 534.067 1008.32 534.733 1003.12C535.267 998.451 527.8 987.784 520.067 982.184C507.267 973.117 502.333 972.184 463 971.251C423.533 970.317 419.667 969.517 409.8 960.984C405.133 957.117 399 948.584 400.867 948.584C401.133 948.584 403.133 949.517 405.133 950.584C414.867 955.651 425.4 951.651 438.333 937.784C459.8 915.117 467.133 909.384 480.733 904.584C488.867 901.651 500.733 901.117 508.333 903.251C522.467 907.117 532.733 919.117 532.733 931.784C532.733 940.984 529.133 948.584 524.733 948.584C519.267 948.584 514.067 944.984 509.8 937.784C506.467 932.451 505.133 931.384 503.667 932.584C502.333 933.784 501.667 933.117 500.467 929.517C498.6 924.051 493.667 918.984 492.6 921.651C492.2 922.984 491.533 922.584 490.067 920.717C489 919.117 486.333 916.984 484.2 915.917C480.867 914.051 480.2 914.051 479.533 915.784C479 917.251 477.8 917.384 474.2 916.451C470.6 915.384 468.467 915.651 464.067 917.784C459.8 919.651 459.133 920.451 461.267 920.451C465 920.584 473.133 927.251 471 928.584C470.067 929.117 471.267 930.984 474.333 933.651C477 936.051 478.333 937.917 477.4 937.917C476.467 937.917 477.667 939.784 479.933 941.917C482.333 944.051 484.333 946.451 484.333 947.251C484.333 948.051 486.2 949.784 488.333 951.117L492.333 953.517L479.4 954.317C448.2 956.184 424.333 958.451 425.267 959.251C425.8 959.784 439.267 961.384 455 962.717C479.133 964.717 501.267 965.251 595.133 965.651L706.467 966.051V959.384V952.584H620.2H534.067L536.6 947.251C547.267 925.784 534.467 902.584 508.067 895.651C500.333 893.651 497.933 893.517 489.4 894.984C483.8 895.917 475.4 898.717 469.667 901.384C461.133 905.517 457.133 908.717 443.133 923.117C423.267 943.117 421.4 944.584 413.933 944.584C401.4 944.584 395.667 930.851 404.467 922.051C407.4 919.117 409.8 917.917 413 917.917C417.267 917.917 421.667 920.717 421.667 923.251C421.667 925.117 418.6 926.584 415.8 926.051C412.6 925.517 410.867 928.451 412.467 931.517C414.333 934.851 420.733 934.584 425 930.984C432.2 924.717 428.333 914.317 417.533 911.117C404.6 907.117 391 921.251 391 938.451C391 951.517 399.4 964.717 411.933 971.651C417.933 974.851 437.667 980.451 445.667 981.251C447.533 981.384 451.667 982.851 455 984.584C458.333 986.451 464.333 988.184 468.333 988.584C474.067 989.117 475.933 989.917 477.133 992.184C477.933 993.917 479 994.851 479.4 994.317C481.267 992.584 480.2 987.517 477.4 983.917L474.6 980.317L478.467 982.317C483.4 984.851 485.667 987.517 490.467 996.451C492.733 1000.58 496.467 1005.25 499.267 1007.12C502.733 1009.65 504.2 1011.65 504.333 1014.05C504.333 1020.45 495.533 1024.98 494.067 1019.25C493.267 1016.18 491 1015.65 491 1018.45C491 1023.52 500.333 1025.78 507 1022.32Z" fill="black" fill-opacity="0.1"/>
<path d="M724.866 968.45C727.533 964.45 729.666 960.45 729.666 959.517C729.666 957.25 721.399 943.384 720.066 943.25C718.866 943.25 710.999 957.117 710.999 959.517C710.999 960.584 712.999 964.584 715.533 968.45L719.933 975.65L724.866 968.45Z" fill="black" fill-opacity="0.1"/>
</svg>
